<?xml version="1.0" encoding="utf-8"?>
<!-- Generator: Adobe Illustrator 24.0.2, SVG Export Plug-In . SVG Version: 6.00 Build 0)  -->
<svg version="1.1" id="Layer_1" xmlns="http://www.w3.org/2000/svg" xmlns:xlink="http://www.w3.org/1999/xlink" x="0px" y="0px"
	 viewBox="0 0 800 237" style="enable-background:new 0 0 800 237;" xml:space="preserve">
<style type="text/css">
	.st0{fill:#A6A6A6;}
	.st1{fill:#FFFFFF;stroke:#FFFFFF;stroke-width:1.1852;stroke-miterlimit:59.2593;}
	.st2{fill:#FFFFFF;}
	.st3{fill:url(#SVGID_1_);}
	.st4{fill:url(#SVGID_2_);}
	.st5{fill:url(#SVGID_3_);}
	.st6{fill:url(#SVGID_4_);}
	.st7{opacity:0.2;enable-background:new    ;}
	.st8{opacity:0.12;enable-background:new    ;}
	.st9{opacity:0.25;fill:#FFFFFF;enable-background:new    ;}
</style>
<path d="M770.4,237H29.6C13,237,0,224,0,207.4V29.6C0,13,13,0,29.6,0h740.7C787,0,800,13,800,29.6v177.8C800,224,787,237,770.4,237z
	"/>
<path class="st0" d="M770.4,4.7c13.6,0,24.9,11.3,24.9,24.9v177.8c0,13.6-11.3,24.9-24.9,24.9H29.6C16,232.3,4.7,221,4.7,207.4V29.6
	C4.7,16,16,4.7,29.6,4.7H770.4 M770.4,0H29.6C13,0,0,13.6,0,29.6v177.8C0,224,13,237,29.6,237h740.7c16.6,0,29.6-13,29.6-29.6V29.6
	C800,13.6,787,0,770.4,0z"/>
<path class="st1" d="M280.9,60.4c0,4.7-1.2,8.9-4.1,11.9c-3.6,3.6-7.7,5.3-13,5.3s-9.5-1.8-13-5.3c-3.6-3.6-5.3-7.7-5.3-13
	s1.8-9.5,5.3-13c3.6-3.6,7.7-5.3,13-5.3c2.4,0,4.7,0.6,7.1,1.8c2.4,1.2,4.1,2.4,5.3,4.1l-3,3c-2.4-3-5.3-4.1-9.5-4.1
	c-3.6,0-7.1,1.2-9.5,4.1c-3,2.4-4.1,5.9-4.1,10.1s1.2,7.7,4.1,10.1s5.9,4.1,9.5,4.1c4.1,0,7.1-1.2,10.1-4.1c1.8-1.8,3-4.1,3-7.1h-13
	v-4.7h17.2L280.9,60.4L280.9,60.4z M308.1,45.6h-16v11.3H307V61h-14.8v11.3h16V77h-20.7V41.5h20.7V45.6z M327.7,77H323V45.6h-10.1
	v-4.1h24.9v4.1h-10.1V77z M355,77V41.5h4.7V77H355z M379.9,77h-4.7V45.6H365v-4.1h24.3v4.1h-10.1V77H379.9z M436.1,72.3
	c-3.6,3.6-7.7,5.3-13,5.3c-5.3,0-9.5-1.8-13-5.3c-3.6-3.6-5.3-7.7-5.3-13s1.8-9.5,5.3-13s7.7-5.3,13-5.3c5.3,0,9.5,1.8,13,5.3
	c3.6,3.6,5.3,7.7,5.3,13S439.7,68.7,436.1,72.3z M413.6,69.3c2.4,2.4,5.9,4.1,9.5,4.1s7.1-1.2,9.5-4.1c2.4-2.4,4.1-5.9,4.1-10.1
	s-1.2-7.7-4.1-10.1c-2.4-2.4-5.9-4.1-9.5-4.1s-7.1,1.2-9.5,4.1c-2.4,2.4-4.1,5.9-4.1,10.1S410.7,67,413.6,69.3z M448,77V41.5h5.3
	l17.2,27.9V41.5h4.7V77h-4.7l-18.4-29v29H448L448,77z"/>
<path class="st2" d="M403.6,129.2c-14.2,0-25.5,10.7-25.5,25.5c0,14.2,11.3,25.5,25.5,25.5s25.5-10.7,25.5-25.5
	C429,139.3,417.8,129.2,403.6,129.2z M403.6,169.5c-7.7,0-14.2-6.5-14.2-15.4c0-8.9,6.5-15.4,14.2-15.4c7.7,0,14.2,5.9,14.2,15.4
	C417.8,163,411.3,169.5,403.6,169.5z M348.4,129.2c-14.2,0-25.5,10.7-25.5,25.5c0,14.2,11.3,25.5,25.5,25.5s25.5-10.7,25.5-25.5
	C373.9,139.3,362.7,129.2,348.4,129.2z M348.4,169.5c-7.7,0-14.2-6.5-14.2-15.4c0-8.9,6.5-15.4,14.2-15.4c7.7,0,14.2,5.9,14.2,15.4
	C362.7,163,356.1,169.5,348.4,169.5z M282.7,136.9v10.7h25.5c-0.6,5.9-3,10.7-5.9,13.6c-3.6,3.6-9.5,7.7-19.6,7.7
	c-16,0-27.9-12.4-27.9-28.4s12.4-28.4,27.9-28.4c8.3,0,14.8,3.6,19.6,7.7l7.7-7.7c-6.5-5.9-14.8-10.7-26.7-10.7
	c-21.3,0-39.7,17.8-39.7,39.1s18.4,39.1,39.7,39.1c11.9,0,20.1-3.6,27.3-11.3c7.1-7.1,9.5-17.2,9.5-24.9c0-2.4,0-4.7-0.6-6.5
	L282.7,136.9L282.7,136.9z M551.7,145.2c-2.4-5.9-8.3-16-21.3-16c-13,0-23.7,10.1-23.7,25.5c0,14.2,10.7,25.5,24.9,25.5
	c11.3,0,18.4-7.1,20.7-11.3L544,163c-3,4.1-6.5,7.1-12.4,7.1c-5.9,0-9.5-2.4-12.4-7.7l33.8-14.2L551.7,145.2L551.7,145.2z
	 M517.3,153.5c0-9.5,7.7-14.8,13-14.8c4.1,0,8.3,2.4,9.5,5.3L517.3,153.5L517.3,153.5z M489.5,177.8h11.3v-74.1h-11.3V177.8z
	 M471.7,134.5c-3-3-7.7-5.9-13.6-5.9c-12.4,0-24.3,11.3-24.3,25.5c0,14.2,11.3,24.9,24.3,24.9c5.9,0,10.7-3,13-5.9h0.6v3.6
	c0,9.5-5.3,14.8-13.6,14.8c-6.5,0-11.3-4.7-12.4-8.9l-9.5,4.1c3,6.5,10.1,14.8,22.5,14.8c13,0,23.7-7.7,23.7-26.1v-45h-10.7
	L471.7,134.5L471.7,134.5z M458.7,169.5c-7.7,0-14.2-6.5-14.2-15.4s6.5-15.4,14.2-15.4c7.7,0,13.6,6.5,13.6,15.4
	S466.4,169.5,458.7,169.5z M603.3,103.7h-26.7v74.1h11.3v-27.9h15.4c12.4,0,24.3-8.9,24.3-23.1S615.7,103.7,603.3,103.7z
	 M603.9,139.3h-16v-25.5h16c8.3,0,13,7.1,13,12.4C616.3,132.7,611.6,139.3,603.9,139.3L603.9,139.3z M672,128.6
	c-8.3,0-16.6,3.6-19.6,11.3l10.1,4.1c2.4-4.1,5.9-5.3,10.1-5.3c5.9,0,11.3,3.6,11.9,9.5v0.6c-1.8-1.2-6.5-3-11.3-3
	c-10.7,0-21.3,5.9-21.3,16.6c0,10.1,8.9,16.6,18.4,16.6c7.7,0,11.3-3.6,14.2-7.1h0.6v5.9h10.7v-28.4
	C694.5,136.3,684.4,128.6,672,128.6L672,128.6z M670.8,169.5c-3.6,0-8.9-1.8-8.9-6.5c0-5.9,6.5-7.7,11.9-7.7c4.7,0,7.1,1.2,10.1,2.4
	C682.7,164.7,676.7,169.5,670.8,169.5z M733,130.4l-12.4,32H720l-13-32h-11.9l19.6,45l-11.3,24.9h11.3l30.2-69.9H733L733,130.4z
	 M633.5,177.8h11.3v-74.1h-11.3V177.8z"/>
<g>
	
		<linearGradient id="SVGID_1_" gradientUnits="userSpaceOnUse" x1="146.4828" y1="317.927" x2="129.6998" y2="334.709" gradientTransform="matrix(5.9259 0 0 5.9259 -738.8889 -1832.4246)">
		<stop  offset="0" style="stop-color:#00A0FF"/>
		<stop  offset="7.000001e-03" style="stop-color:#00A1FF"/>
		<stop  offset="0.26" style="stop-color:#00BEFF"/>
		<stop  offset="0.512" style="stop-color:#00D2FF"/>
		<stop  offset="0.76" style="stop-color:#00DFFF"/>
		<stop  offset="1" style="stop-color:#00E3FF"/>
	</linearGradient>
	<path class="st3" d="M61.6,44.4c-1.8,1.8-2.4,4.7-2.4,8.3v131c0,3.6,1.2,6.5,3,8.3l0.6,0.6l73.5-73.5v-1.2L61.6,44.4z"/>
	
		<linearGradient id="SVGID_2_" gradientUnits="userSpaceOnUse" x1="158.5215" y1="329.2716" x2="134.3245" y2="329.2716" gradientTransform="matrix(5.9259 0 0 5.9259 -738.8889 -1832.4246)">
		<stop  offset="0" style="stop-color:#FFE000"/>
		<stop  offset="0.409" style="stop-color:#FFBD00"/>
		<stop  offset="0.775" style="stop-color:#FFA500"/>
		<stop  offset="1" style="stop-color:#FF9C00"/>
	</linearGradient>
	<path class="st4" d="M160,144l-24.3-24.3v-1.8L160,93.6l0.6,0.6l29,16.6c8.3,4.7,8.3,12.4,0,17.2L160,144z"/>
	
		<linearGradient id="SVGID_3_" gradientUnits="userSpaceOnUse" x1="149.503" y1="331.5061" x2="126.745" y2="354.2642" gradientTransform="matrix(5.9259 0 0 5.9259 -738.8889 -1832.4246)">
		<stop  offset="0" style="stop-color:#FF3A44"/>
		<stop  offset="1" style="stop-color:#C31162"/>
	</linearGradient>
	<path class="st5" d="M160.6,143.4l-24.9-24.9l-74.1,74.1c3,3,7.1,3,12.4,0.6L160.6,143.4"/>
	
		<linearGradient id="SVGID_4_" gradientUnits="userSpaceOnUse" x1="131.949" y1="309.4331" x2="142.112" y2="319.5962" gradientTransform="matrix(5.9259 0 0 5.9259 -738.8889 -1832.4246)">
		<stop  offset="0" style="stop-color:#32A071"/>
		<stop  offset="6.900000e-02" style="stop-color:#2DA771"/>
		<stop  offset="0.476" style="stop-color:#15CF74"/>
		<stop  offset="0.801" style="stop-color:#06E775"/>
		<stop  offset="1" style="stop-color:#00F076"/>
	</linearGradient>
	<path class="st6" d="M160.6,93.6L74.1,44.4c-5.3-3-9.5-2.4-12.4,0.6l74.1,73.5L160.6,93.6L160.6,93.6z"/>
	<path class="st7" d="M160,142.8l-85.9,48.6c-4.7,3-8.9,2.4-11.9,0l-0.6,0.6l0.6,0.6c3,2.4,7.1,3,11.9,0L160,142.8z"/>
	<path class="st8" d="M61.6,191.4c-1.8-1.8-2.4-4.7-2.4-8.3v0.6c0,3.6,1.2,6.5,3,8.3v-0.6L61.6,191.4L61.6,191.4z M189.6,126.2
		L160,142.8l0.6,0.6l29-16.6c4.1-2.4,5.9-5.3,5.9-8.3C195.6,121.5,193.2,123.9,189.6,126.2z"/>
	<path class="st9" d="M74.1,45l115.6,65.8c3.6,2.4,5.9,4.7,5.9,7.7c0-3-1.8-5.9-5.9-8.3L74.1,44.4c-8.3-4.7-14.8-1.2-14.8,8.3v0.6
		C59.3,44.4,65.8,40.3,74.1,45z"/>
</g>
</svg>
