<svg width="16" height="265" viewBox="0 0 16 265" fill="none" xmlns="http://www.w3.org/2000/svg">
<path d="M7.8761 8.05188L7.87609 256.052" stroke="white" stroke-width="2" stroke-linecap="round"/>
<ellipse cx="7.87475" cy="129.052" rx="8" ry="7.87562" transform="rotate(90 7.87475 129.052)" fill="#CDCEE9"/>
<ellipse cx="7.87475" cy="8.05188" rx="8" ry="7.87562" transform="rotate(90 7.87475 8.05188)" fill="#05202E"/>
<path d="M7.8763 11.6212C5.93566 11.6212 4.36246 10.0232 4.36246 8.05188C4.36246 6.08059 5.93566 4.48254 7.8763 4.48254C9.81694 4.48254 11.3901 6.08059 11.3901 8.05188C11.3901 10.0232 9.81694 11.6212 7.8763 11.6212Z" fill="#CDCEE9"/>
<path d="M7.87475 264.052C3.52517 264.052 -0.000864563 260.47 -0.000864373 256.052C-0.000864183 251.634 3.52517 248.052 7.87475 248.052C12.2243 248.052 15.7504 251.634 15.7504 256.052C15.7504 260.47 12.2243 264.052 7.87475 264.052Z" fill="#CDCEE9"/>
</svg>
